<svg xmlns="http://www.w3.org/2000/svg" viewBox="0 0 600 400" width="600" height="400">
  <!-- Background with slight gradient -->
  <defs>
    <linearGradient id="bg-gradient" x1="0%" y1="0%" x2="100%" y2="100%">
      <stop offset="0%" stop-color="#e0f2fe" stop-opacity="0.5" />
      <stop offset="100%" stop-color="#ffffff" stop-opacity="0.1" />
    </linearGradient>
    
    <!-- Neural network pattern -->
    <pattern id="neural-pattern" width="100" height="100" patternUnits="userSpaceOnUse">
      <circle cx="10" cy="10" r="2" fill="#3b82f6" opacity="0.2" />
      <circle cx="30" cy="30" r="2" fill="#3b82f6" opacity="0.2" />
      <circle cx="50" cy="10" r="2" fill="#3b82f6" opacity="0.2" />
      <circle cx="70" cy="30" r="2" fill="#3b82f6" opacity="0.2" />
      <circle cx="90" cy="10" r="2" fill="#3b82f6" opacity="0.2" />
      <circle cx="10" cy="50" r="2" fill="#3b82f6" opacity="0.2" />
      <circle cx="30" cy="70" r="2" fill="#3b82f6" opacity="0.2" />
      <circle cx="50" cy="50" r="2" fill="#3b82f6" opacity="0.2" />
      <circle cx="70" cy="70" r="2" fill="#3b82f6" opacity="0.2" />
      <circle cx="90" cy="50" r="2" fill="#3b82f6" opacity="0.2" />
      <circle cx="10" cy="90" r="2" fill="#3b82f6" opacity="0.2" />
      <circle cx="30" cy="90" r="2" fill="#3b82f6" opacity="0.2" />
      <circle cx="50" cy="90" r="2" fill="#3b82f6" opacity="0.2" />
      <circle cx="70" cy="90" r="2" fill="#3b82f6" opacity="0.2" />
      <circle cx="90" cy="90" r="2" fill="#3b82f6" opacity="0.2" />
      
      <line x1="10" y1="10" x2="30" y2="30" stroke="#3b82f6" stroke-width="1" opacity="0.1" />
      <line x1="30" y1="30" x2="50" y2="10" stroke="#3b82f6" stroke-width="1" opacity="0.1" />
      <line x1="50" y1="10" x2="70" y2="30" stroke="#3b82f6" stroke-width="1" opacity="0.1" />
      <line x1="70" y1="30" x2="90" y2="10" stroke="#3b82f6" stroke-width="1" opacity="0.1" />
      <line x1="10" y1="50" x2="30" y2="30" stroke="#3b82f6" stroke-width="1" opacity="0.1" />
      <line x1="30" y1="70" x2="10" y2="50" stroke="#3b82f6" stroke-width="1" opacity="0.1" />
      <line x1="50" y1="50" x2="30" y2="70" stroke="#3b82f6" stroke-width="1" opacity="0.1" />
      <line x1="70" y1="70" x2="50" y2="50" stroke="#3b82f6" stroke-width="1" opacity="0.1" />
      <line x1="90" y1="50" x2="70" y2="70" stroke="#3b82f6" stroke-width="1" opacity="0.1" />
    </pattern>
    
    <!-- Prescription paper texture -->
    <pattern id="paper-texture" width="100" height="100" patternUnits="userSpaceOnUse">
      <rect width="100" height="100" fill="#ffffff" />
      <rect width="100" height="100" fill="#000000" opacity="0.03" />
    </pattern>
    
    <!-- Scanning effect -->
    <linearGradient id="scan-gradient" x1="0%" y1="0%" x2="0%" y2="100%">
      <stop offset="0%" stop-color="#3b82f6" stop-opacity="0" />
      <stop offset="50%" stop-color="#3b82f6" stop-opacity="0.3" />
      <stop offset="100%" stop-color="#3b82f6" stop-opacity="0" />
    </linearGradient>
    
    <!-- Glow effect -->
    <filter id="glow" x="-20%" y="-20%" width="140%" height="140%">
      <feGaussianBlur stdDeviation="5" result="blur" />
      <feComposite in="SourceGraphic" in2="blur" operator="over" />
    </filter>
  </defs>
  
  <!-- Background rectangle -->
  <rect width="600" height="400" fill="url(#bg-gradient)" />
  <rect width="600" height="400" fill="url(#neural-pattern)" />
  
  <!-- Prescription paper -->
  <g transform="translate(100, 50) rotate(5)">
    <rect width="300" height="350" rx="5" ry="5" fill="url(#paper-texture)" stroke="#e5e7eb" stroke-width="2" />
    
    <!-- Handwritten prescription lines -->
    <path d="M50,70 C80,60 120,80 150,70 S200,50 250,60" stroke="#0f172a" stroke-width="2" fill="none" opacity="0.7" />
    <path d="M50,100 C90,95 130,110 170,100 S220,90 250,95" stroke="#0f172a" stroke-width="2" fill="none" opacity="0.7" />
    <path d="M50,130 C70,125 90,135 110,130 S150,120 180,125" stroke="#0f172a" stroke-width="2" fill="none" opacity="0.7" />
    
    <path d="M50,170 C90,165 130,180 170,170 S220,160 250,165" stroke="#0f172a" stroke-width="2" fill="none" opacity="0.6" />
    <path d="M50,200 C70,195 90,205 110,200 S130,190 170,195" stroke="#0f172a" stroke-width="2" fill="none" opacity="0.6" />
    
    <path d="M50,240 C80,235 120,245 160,235 S200,225 240,230" stroke="#0f172a" stroke-width="2" fill="none" opacity="0.5" />
    <path d="M50,270 C70,265 90,275 120,265 S150,255 180,260" stroke="#0f172a" stroke-width="2" fill="none" opacity="0.5" />
    
    <!-- Doctor's signature -->
    <path d="M180,320 C200,310 220,330 240,315" stroke="#0f172a" stroke-width="2" fill="none" opacity="0.7" />
    
    <!-- Scanning effect -->
    <rect width="300" height="50" y="150" fill="url(#scan-gradient)" opacity="0.7">
      <animate attributeName="y" from="0" to="350" dur="3s" repeatCount="indefinite" />
    </rect>
  </g>
  
  <!-- Digital output with recognized text -->
  <g transform="translate(350, 100)">
    <rect width="220" height="250" rx="10" ry="10" fill="#ffffff" stroke="#e5e7eb" stroke-width="2" />
    
    <!-- AI processing visual -->
    <circle cx="110" cy="40" r="20" fill="#3b82f6" opacity="0.2" />
    <path d="M110,20 L110,60 M90,40 L130,40" stroke="#3b82f6" stroke-width="2" opacity="0.8" />
    
    <!-- Text lines representing recognized prescription -->
    <rect x="30" y="80" width="160" height="10" rx="2" fill="#0f172a" opacity="0.8" />
    <rect x="30" y="100" width="140" height="10" rx="2" fill="#0f172a" opacity="0.7" />
    <rect x="30" y="120" width="120" height="10" rx="2" fill="#0f172a" opacity="0.7" />
    
    <rect x="30" y="150" width="160" height="10" rx="2" fill="#0f172a" opacity="0.6" />
    <rect x="30" y="170" width="130" height="10" rx="2" fill="#0f172a" opacity="0.6" />
    
    <rect x="30" y="200" width="160" height="10" rx="2" fill="#0f172a" opacity="0.5" />
    <rect x="30" y="220" width="110" height="10" rx="2" fill="#0f172a" opacity="0.5" />
    
    <!-- Glow effect around the digital output -->
    <rect width="220" height="250" rx="10" ry="10" fill="none" stroke="#3b82f6" stroke-width="2" opacity="0.3" filter="url(#glow)" />
  </g>
  
  <!-- Connection lines between prescription and digital output -->
  <g opacity="0.5">
    <path d="M280,100 C310,110 330,120 350,130" stroke="#3b82f6" stroke-width="2" fill="none" />
    <path d="M280,180 C310,190 330,200 350,190" stroke="#3b82f6" stroke-width="2" fill="none" />
    <path d="M280,260 C310,270 330,280 350,250" stroke="#3b82f6" stroke-width="2" fill="none" />
    
    <circle cx="280" cy="100" r="3" fill="#3b82f6" />
    <circle cx="280" cy="180" r="3" fill="#3b82f6" />
    <circle cx="280" cy="260" r="3" fill="#3b82f6" />
    
    <circle cx="350" cy="130" r="3" fill="#3b82f6" />
    <circle cx="350" cy="190" r="3" fill="#3b82f6" />
    <circle cx="350" cy="250" r="3" fill="#3b82f6" />
  </g>
  
  <!-- Animated pulse circles -->
  <circle cx="315" cy="170" r="5" fill="#3b82f6" opacity="0.5">
    <animate attributeName="r" values="5;20;5" dur="2s" repeatCount="indefinite" />
    <animate attributeName="opacity" values="0.5;0;0.5" dur="2s" repeatCount="indefinite" />
  </circle>
</svg> 